<svg xmlns="http://www.w3.org/2000/svg" width="325" height="58" viewBox="0 0 325 58">
    <g fill="none" fill-rule="evenodd">
        <g fill-rule="nonzero">
            <path fill="#221714" d="M30.229 27.557l.556.517c.069.211-.094.42-.175.644.01.023.012.052.028.067.325.291.306.41-.072.608-.306.16-.582.413-.905.495-.434.11-.674.512-1.117.61-.255.057-.518.281-.683.5-.175.235-.33.527-.296.855.02.191.107.259.295.255l.036-.003c.2-.023.449-.129.588-.047.204.12.379.01.563.038.255.037.526-.054.792-.069.154-.008.312.034.468.038.133.004.269 0 .4-.023.289-.051.578-.178.863-.164.455.023.875-.138 1.316-.163.074-.004.145-.024.218-.04.035-.008.08-.043.103-.03.295.162.676.081.94.333.061.058.136.142.206.144.256.008.388.175.542.34.075.08.208.106.315.156l.262.766c-.07.19-.135.375-.207.557-.093.236-.188.471-.288.703-.08.183-.045.409-.22.558-.024.02.015.113.023.173.025.167.08.336.068.501-.035.488.056.98 0 1.457-.04.34-.025.675-.057 1.01-.003.036-.009.085-.032.105-.17.148-.165.375-.259.555-.28.543-.326 1.163-.586 1.713-.135.285-.33.537-.442.825-.09.228-.318.304-.434.502-.043.073-.248.052-.404.078l-.182.243c-.04.003-.09.021-.11.005-.182-.152-.461-.164-.574-.417-.023-.052-.117-.081-.183-.1-.143-.037-.289-.06-.456-.094-.07-.358-.334-.568-.627-.75-.153-.096-.303-.18-.428-.33-.08-.097-.293-.084-.495-.132l-.156-.244c.238-.029.432-.051.661-.08a.192.192 0 0 0 .051-.047c.187-.244.376-.424.733-.455.255-.023.493-.259.763-.414.03-.178.027-.398.246-.516.04-.02.055-.104.066-.162.064-.336.135-.671.18-1.01.036-.258.016-.523.133-.77.019-.04-.018-.112-.038-.167-.01-.03-.064-.067-.057-.083.175-.417-.046-.87.122-1.286.02-.05.008-.118.004-.178-.022-.39-.052-.779-.066-1.168-.01-.274.02-.55-.006-.82-.007-.074-.146-.19-.227-.193a5.57 5.57 0 0 0-.92.043c-.435.06-.864.166-1.3.229-.289.042-.52.2-.729.366-.296.237-.504.573-.84.78-.1.063-.129.244-.215.422.173.06.292.1.41.143.135.05.281.08.4.155.15.095.193.25.124.424l-.135.337-.872.445c.19.292.297.59.668.668.137.03.249.183.392.295-.251.436-.46.863-.843 1.18.007.048.012.096.02.144.058.3.108.588-.009.903-.12.324-.146.683-.22 1.026-.04.187.012.411-.201.536-.025.015-.036.066-.04.1-.046.423-.161.805-.534 1.065-.066.046-.093.146-.149.21-.06.07-.135.127-.205.19l-.344-.218c0-.279.004-.58-.002-.882a6.338 6.338 0 0 0-.098-.969c-.043-.253-.047-.53-.052-.795-.003-.174.013-.336-.168-.402-.185-.066-.336.016-.433.19-.01.02-.034.034-.065.062-.258-.048-.497.012-.765.1-.355.117-.77.095-1.154.068-.124-.01-.258-.207-.344-.345-.1-.16-.152-.35-.244-.575.097-.265.395-.307.679-.357.18-.031.374 0 .479-.211.02-.041.107-.066.165-.069.393-.016.693-.278 1.049-.395.161-.054.315-.13.478-.176.184-.051.217-.171.198-.36-.175 0-.344-.023-.503.007-.142.026-.29.002-.424.152-.19.211-.47.199-.956.07-.055-.166-.133-.336-.168-.517-.053-.275-.015-.528.217-.735.285-.254.259-.503-.052-.747a.583.583 0 0 1-.13-.132c-.304-.47-.729-.308-1.14-.223-.17.034-.287.163-.433.233-.332.16-.666.051-.98-.083-.304-.132-.43-.075-.465.247-.007.07-.015.147-.046.21-.199.399-.135.805-.037 1.213.055.228.096.453.073.693-.016.153.011.316.047.468.114.475.242.945.36 1.419a.39.39 0 0 1 .006.184c-.094.345.02.676.064 1.087-.01.006-.062.04-.12.065-.345.154-.346.153-.27.497-.107.133-.225.106-.305-.012-.245-.363-.448-.746-.52-1.19a.57.57 0 0 0-.152-.318c-.128-.116-.134-.235-.139-.393-.009-.288-.092-.574-.093-.861 0-.203-.02-.383-.139-.574.222-.341.02-.695-.003-1.051-.005-.095-.065-.214-.028-.28.152-.266.07-.558.123-.834.018-.093.012-.218-.038-.288-.068-.096-.054-.155-.029-.26.024-.1-.04-.224-.067-.353.14-.193.32-.355.601-.37.049-.002.094-.058.14-.092.049-.036.091-.1.143-.107.366-.05.625-.316.944-.462a.405.405 0 0 0 .168-.18c.09-.174.209-.3.405-.312.068-.323.108-.369.388-.393.27-.024.54-.037.81-.048.136-.005.238-.05.301-.174.075-.146.202-.203.356-.233.118-.022.24-.059.342-.12.124-.077.236-.074.377-.073.335.003.645-.117.894-.36.104-.103.1-.225.047-.344-.054-.124-.161-.126-.282-.112-.12.013-.24.003-.36-.01-.296-.03-.592-.018-.888-.025-.332-.007-.683-.068-.914-.306-.147-.15-.284-.252-.498-.29 0-.325-.422-.527-.18-.912-.197-.057-.365-.068-.427-.277-.106-.36-.033-.536.401-.766.137-.072.282-.172.45-.06.018.013.048.013.071.012l1.203-.067c.12-.007.242-.005.362-.021.144-.02.345-.008.418-.097.174-.209.4-.219.622-.254.19-.03.29-.105.283-.31a.472.472 0 0 1 .055-.247.483.483 0 0 0-.064-.588c-.188-.204-.269-.453-.408-.691l.262-.844c.205-.015.4-.018.59-.046a.642.642 0 0 0 .29-.112c.329-.255.74-.231 1.013.08.09.102.16.22.265.303.117.344.098.732.176 1.104.042.195.147.386.258.555.089.134.266.117.367.027.253-.225.564-.125.844-.187.172-.04.36-.008.582-.008M2.613 34.254c.038.005.089.025.109.01.29-.236.69-.214.986-.44.113-.086.267-.116.4-.176.199-.09.427-.112.587-.292.044-.048.165-.019.241-.05.214-.088.422-.19.634-.282.1-.044.2-.1.305-.112.28-.035.561-.047.84-.075a.983.983 0 0 0 .25-.062 50.5 50.5 0 0 0 .943-.374c.055-.022.104-.061.14-.084-.076-.233-.223-.233-.373-.246-.389-.035-.779-.065-1.163-.127-.139-.023-.242-.144-.295-.3-.072-.206-.172-.401-.28-.65.017-.033.042-.135.105-.203.222-.244.462-.47.683-.714.08-.089.121-.21.182-.318l.953-.44c.068-.088.084-.221-.025-.306-.086-.07-.23-.13-.327-.109-.34.078-.725.073-.953.417-.346.091-.611.428-1.01.351-.161-.031-.315-.104-.47-.163-.031-.012-.051-.064-.082-.071-.36-.084-.36-.36-.321-.636.031-.218.088-.435.157-.645.068-.205.208-.374.42-.431.244-.066.41-.21.548-.465.28.049.562.125.847.14.41.02.821.087 1.232-.056.165-.057.361-.026.544-.03.296-.008.292-.008.368-.275.034-.118.097-.229.127-.348.085-.339-.118-.54-.46-.487-.36.057-.726.081-1.086.142-.137.023-.264.105-.423.173l-1.736-.74c.079-.306-.01-.56-.228-.775a.252.252 0 0 1-.069-.126c-.07-.375-.068-.375-.242-.585.225-.124.474-.216.659-.38.12-.106.244-.152.38-.196.066-.021.159-.034.215-.004.19.101.355.02.53-.034.244-.077.49-.146.759-.225-.05-.207.05-.34.235-.331.323.015.482-.13.495-.423.24-.105.412-.008.589.08.327.162.497.085.522-.283.046-.671.103-1.006-.335-1.74.054-.37.247-.715.197-1.106-.018-.136.053-.222.168-.3.2-.138.384-.3.599-.47.851-.076.851-.076 1.405.393-.013.247.133.5-.005.774-.035.069.055.201.083.29-.087.256-.184.497-.249.746-.11.419.137.743.564.755.122.003.244-.022.365-.036.098-.012.195-.035.293-.04.059-.005.12.013.171.02.095.268.095.268.022.825l.472.2c-.025.119-.01.287-.083.344-.215.17-.067.47-.268.64-.046.039-.02.163-.031.282-.28.236-.577.489-.878.737a.973.973 0 0 1-.216.134.608.608 0 0 0-.332.325.732.732 0 0 1-.26.287c-.24.16-.27.212-.2.515.027.112-.01.264.201.285.034-.076.07-.16.1-.225.284-.138.557-.272.832-.402a.246.246 0 0 1 .107-.022c.435.002.794-.222 1.174-.385.15-.064.316-.085.526-.139-.171.665-.49 1.11-1.082 1.335-.124.047-.236.128-.353.193-.118.066-.232.181-.354.19-.273.019-.418.215-.61.355-.205.149-.43.27-.67.418.015.357-.214.524-.541.616-.137.039-.263.12-.402.186.056.205.184.214.32.165.103-.037.194-.106.292-.16.32-.176.644-.245 1.017-.146.225.06.48.012.745.012l.437.557c-.27.259-.334.623-.417.977-.268.197-.587.347-.633.735 0 .011-.008.029-.018.032-.267.109-.354.394-.553.567-.219.19-.47.3-.78.257a1.41 1.41 0 0 0-.472.032c-.184.039-.253.15-.21.287.048.153.168.227.313.193.569-.127 1.162-.152 1.701-.405a.47.47 0 0 1 .25-.048c.382.058.747-.043 1.119-.096.375-.055.75-.114 1.125-.163a.74.74 0 0 1 .255.016c.378.086.755.177 1.143.27-.009.361.298.297.513.345.175.24.24.535.5.713.161.111.131.492-.006.64-.08.09-.165.177-.239.272-.168.211-.358.356-.65.347-.241-.008-.485.109-.747-.05.009-.202-.141-.255-.335-.316-.458-.142-.897-.09-1.348.022-.248.062-.51.066-.763.107-.08.012-.152.065-.232.087-.047.013-.1.002-.214.002.306-.335.59-.597.924-.796.222-.132.351-.331.481-.595-.106-.02-.182-.051-.256-.045-.192.016-.383.063-.575.073-.559.03-1.117.045-1.676.071-.262.012-.48.15-.717.245-.392.156-.686.511-1.151.525-.211.006-.422.13-.626.215-.567.236-1.12.505-1.697.713-.501.18-.946.463-1.438.674l-.06.233c-.234.146-.427.274-.628.388-.084.047-.187.056-.277.093-.123.051-.294.08-.352.173-.147.245-.37.302-.618.336l-.219.33c-.395-.044-.563.326-.851.495-.124.073-.23.181-.36.234-.258.104-.543.147-.669.406-.176-.068-.287-.119-.403-.154-.22-.069-.297-.228-.317-.443-.011-.137-.053-.271-.093-.46.06-.131.151-.306.077-.537-.063-.196.04-.336.251-.427.206-.089.392-.183.45-.432.019-.077.101-.138.153-.206.046-.059.135-.124.128-.175-.045-.309.223-.398.372-.57.015-.018.033-.05.049-.05.307.017.503-.233.805-.345l.328.556m6.757-3.858c.224.061.442.01.625-.203a.364.364 0 0 1 .26-.116c.411.026.618-.304.894-.506.143-.105.18-.304.118-.47-.068-.183-.253-.167-.414-.156-.06.004-.121.017-.18.031-.515.123-.932.449-1.395.68-.04.019-.06.074-.093.111-.077.09-.171.17-.23.27-.043.076-.072.186-.05.264.013.048.133.075.21.092.07.015.146.003.255.003"/>
            <path fill="#221714" d="M7.655 42.657a.66.66 0 0 1-.513.346c-.217.032-.43.094-.646.131-.068.013-.156.009-.21-.026-.173-.11-.335-.237-.479-.342.046-.487.24-.857.476-1.208.157-.233.334-.456.475-.7.059-.102.047-.246.073-.41-.491.075-.755-.33-1.15-.397a.655.655 0 0 1-.29-.14c-.25-.205-.238-.299.055-.501l-.053-.307c.831-.448 1.605-.997 2.528-1.258l-.016-.082-.797-.073c-.019-.079-.088-.198-.056-.274.064-.15.092-.37.296-.396.348-.046.443-.395.698-.55.104-.064.085-.237.01-.506-.134-.058-.272-.15-.429-.014-.026.023-.081.048-.1.035-.293-.198-.758-.062-.936-.485-.027-.066-.069-.126-.11-.2.162-.17.423-.283.254-.587.123-.032.19-.058.26-.068.245-.033.483-.082.688-.239a.438.438 0 0 1 .203-.08c.625-.078 1.248-.246 1.884-.08a.43.43 0 0 0 .146.015c.358-.034.649.063.816.45-.296.185-.392.624-.817.697-.163.345-.533.458-.783.705-.058.057-.083.147-.124.222l-.363.122c.006.179.125.2.227.225.12.028.244.03.364.055.415.086.78.458.84.865.01.064-.025.14-.05.205-.086.224-.202.438-.26.668-.062.249-.263.393-.378.598-.065.113-.167.209-.266.296-.188.167-.351.336-.317.62.006.051-.071.152-.125.164-.222.046-.297.245-.417.39a.398.398 0 0 0-.08.295c.026.13.165.133.277.116.46-.067.93-.056 1.377-.212.137-.048.29-.078.434-.075.262.007.482-.07.71-.276l-.143-.364c.056-.132.152-.269.163-.412.008-.103-.09-.217-.15-.321-.03-.05-.1-.079-.122-.13-.085-.2-.159-.404-.222-.571l.061-1.147c.05-.103.11-.248.189-.382.167-.285.34-.56.72-.593a.54.54 0 0 0 .304-.12c.195-.179.425-.208.668-.22.134-.009.268-.034.396-.05.27.115.08.352.154.547.052.03.128.069.195.119.153.115.28.265.28.459-.003.448.126.903-.066 1.344-.024.052-.018.117-.03.205-.339-.101-.58.126-.854.236-.239.095-.284.23-.207.474.085.269.162.542.278.796.06.133.2.23.355.398 0 .003-.004.088.01.17.012.078.036.155.066.227.052.127.112.25.161.357-.16.135-.28.24-.403.34a2.34 2.34 0 0 1-.236.158c-.04.025-.113.026-.13.06-.188.363-.556.323-.869.388-.358.076-.723.119-1.085.176-.012.002-.025.008-.036.005-.544-.114-1.062.128-1.598.117-.388-.006-.78 0-1.175 0"/>
            <path fill="#C3002F" d="M49.938 34.745c-1.06 1.703-2.122 3.405-3.18 5.109-1.805 2.892-3.606 5.789-5.411 8.682a476.03 476.03 0 0 0-1.854 2.997c7.287-.688 15.418-1.769 19.019-2.707.269-4.348.557-7.994 1.645-13.093l-10.22-.988z"/>
            <path fill="#C9920E" d="M73.257 16.028L65.51 29.166s12.733-.375 19.818-5.114c2.966-1.98 5.68-5.39 7.478-8.544C95.498 10.77 97.206 5.445 97.972 0c0 0-9.946 7.37-24.715 16.028"/>
            <path fill="#111820" d="M66.683 38.677c-.452-1.84-3.43-3.983-3.43-3.983s-2.788 10.873-3.593 14.973c-.655 3.342 4.521 7.42 7.197 7.93 1.086-1.923 1.868-3.99 2.002-6.102-.52-3.947-2.176-12.818-2.176-12.818M60.086 17.178c1.05-1.43 4.39.62 5.804 3.45 1.413 2.833-3.05 9.937-3.05 9.937s-4.567-2.629-5.155-5.146c-.585-2.517 1.349-6.809 2.4-8.24"/>
            <path fill="#C9920E" d="M57.08 25.56c-.323-1.387.039-3.107.46-4.436-12.368-.631-20.911-3.965-20.911-3.965 2.692 8.149 9.99 13.361 18.508 12.978.975-.044 3.143-.396 4.894-.765-1.685-1.36-2.679-2.641-2.952-3.811"/>
            <path fill="#C3002F" d="M90.286 55.49L76.325 29.616l-12.05 3.053c.223.863.412 1.693.57 2.514.95.85 2.14 2.114 2.442 3.344l.005.017.003.017c.016.09 1.665 8.932 2.18 12.852l.008.06-.003.062a11.819 11.819 0 0 1-.214 1.583c6.52 1.308 15.853 2.559 21.02 2.372"/>
            <path fill="#7C6755" d="M7.406 46.17v.434H5.651v4.77H4.41v-4.77H2.654v-.433zM10.533 46.17l2.374 5.203h-1.271l-.633-1.39H9.034l-.666 1.39H7.52l2.474-5.202h.538zm-1.268 3.337h1.527l-.75-1.644-.777 1.644zM13.951 46.171h1.242v5.203h-1.242zM16.857 46.17h.794l2.89 3.262V46.17h.78v5.203h-.538l-3.14-3.598v3.597h-.786zM28.688 46.17h.794l2.89 3.262V46.17h.78v5.203h-.538l-3.14-3.598v3.597h-.786zM25.323 46.17l2.374 5.203h-1.271l-.634-1.39h-1.968l-.666 1.39h-.847l2.474-5.202h.538zm-1.267 3.337h1.527l-.751-1.644-.776 1.644z"/>
        </g>
        <text fill="#221714" font-family="MicrosoftJhengHeiBold, Microsoft JhengHei" font-size="18" font-weight="bold">
            <tspan x="109" y="27">臺南市政府圖片資料庫平台</tspan>
        </text>
        <text fill="#7C6755" font-family="MicrosoftJhengHeiBold, Microsoft JhengHei" font-size="14" font-weight="bold">
            <tspan x="109" y="49">Tainan City Government</tspan>
        </text>
    </g>
</svg>
